<?xml version="1.0" encoding="UTF-8" standalone="no"?>
<!DOCTYPE svg PUBLIC "-//W3C//DTD SVG 1.1//EN"
 "http://www.w3.org/Graphics/SVG/1.1/DTD/svg11.dtd">
<!-- Generated by graphviz version 2.40.1 (20161225.0304)
 -->
<!-- Title: %3 Pages: 1 -->
<svg width="716pt" height="404pt"
 viewBox="0.00 0.00 716.00 404.00" xmlns="http://www.w3.org/2000/svg" xmlns:xlink="http://www.w3.org/1999/xlink">
<g id="graph0" class="graph" transform="scale(1 1) rotate(0) translate(4 400)">
<title>%3</title>
<polygon fill="#ffffff" stroke="transparent" points="-4,4 -4,-400 712,-400 712,4 -4,4"/>
<!-- [root] aws_instance.fourthserver -->
<g id="node1" class="node">
<title>[root] aws_instance.fourthserver</title>
<polygon fill="none" stroke="#000000" points="526.5,-252 368.5,-252 368.5,-216 526.5,-216 526.5,-252"/>
<text text-anchor="middle" x="447.5" y="-230.3" font-family="Times,serif" font-size="14.00" fill="#000000">aws_instance.fourthserver</text>
</g>
<!-- [root] aws_subnet.subnet2 -->
<g id="node5" class="node">
<title>[root] aws_subnet.subnet2</title>
<polygon fill="none" stroke="#000000" points="492,-180 367,-180 367,-144 492,-144 492,-180"/>
<text text-anchor="middle" x="429.5" y="-158.3" font-family="Times,serif" font-size="14.00" fill="#000000">aws_subnet.subnet2</text>
</g>
<!-- [root] aws_instance.fourthserver&#45;&gt;[root] aws_subnet.subnet2 -->
<g id="edge1" class="edge">
<title>[root] aws_instance.fourthserver&#45;&gt;[root] aws_subnet.subnet2</title>
<path fill="none" stroke="#000000" d="M442.9578,-215.8314C441.0116,-208.0463 438.6932,-198.7729 436.5337,-190.1347"/>
<polygon fill="#000000" stroke="#000000" points="439.9242,-189.2658 434.1033,-180.4133 433.1332,-190.9636 439.9242,-189.2658"/>
</g>
<!-- [root] data.aws_ami.ubuntu -->
<g id="node7" class="node">
<title>[root] data.aws_ami.ubuntu</title>
<polygon fill="none" stroke="#000000" points="643,-180 510,-180 510,-144 643,-144 643,-180"/>
<text text-anchor="middle" x="576.5" y="-158.3" font-family="Times,serif" font-size="14.00" fill="#000000">data.aws_ami.ubuntu</text>
</g>
<!-- [root] aws_instance.fourthserver&#45;&gt;[root] data.aws_ami.ubuntu -->
<g id="edge2" class="edge">
<title>[root] aws_instance.fourthserver&#45;&gt;[root] data.aws_ami.ubuntu</title>
<path fill="none" stroke="#000000" d="M480.0521,-215.8314C496.7048,-206.5368 517.1585,-195.1208 534.9385,-185.1971"/>
<polygon fill="#000000" stroke="#000000" points="536.9321,-188.0927 543.9583,-180.1628 533.5205,-181.9803 536.9321,-188.0927"/>
</g>
<!-- [root] aws_instance.secondserver -->
<g id="node2" class="node">
<title>[root] aws_instance.secondserver</title>
<polygon fill="none" stroke="#000000" points="708,-252 545,-252 545,-216 708,-216 708,-252"/>
<text text-anchor="middle" x="626.5" y="-230.3" font-family="Times,serif" font-size="14.00" fill="#000000">aws_instance.secondserver</text>
</g>
<!-- [root] aws_instance.secondserver&#45;&gt;[root] aws_subnet.subnet2 -->
<g id="edge3" class="edge">
<title>[root] aws_instance.secondserver&#45;&gt;[root] aws_subnet.subnet2</title>
<path fill="none" stroke="#000000" d="M577.0429,-215.9243C550.2289,-206.1243 516.9051,-193.945 488.7153,-183.6422"/>
<polygon fill="#000000" stroke="#000000" points="489.5713,-180.2286 478.9775,-180.0831 487.1684,-186.8033 489.5713,-180.2286"/>
</g>
<!-- [root] aws_instance.secondserver&#45;&gt;[root] data.aws_ami.ubuntu -->
<g id="edge4" class="edge">
<title>[root] aws_instance.secondserver&#45;&gt;[root] data.aws_ami.ubuntu</title>
<path fill="none" stroke="#000000" d="M613.8829,-215.8314C608.1828,-207.6232 601.3337,-197.7606 595.0641,-188.7323"/>
<polygon fill="#000000" stroke="#000000" points="597.8658,-186.6306 589.287,-180.4133 592.1162,-190.6234 597.8658,-186.6306"/>
</g>
<!-- [root] aws_security_group.subnetsecurity -->
<g id="node3" class="node">
<title>[root] aws_security_group.subnetsecurity</title>
<polygon fill="none" stroke="#000000" points="207,-252 0,-252 0,-216 207,-216 207,-252"/>
<text text-anchor="middle" x="103.5" y="-230.3" font-family="Times,serif" font-size="14.00" fill="#000000">aws_security_group.subnetsecurity</text>
</g>
<!-- [root] aws_vpc.environment&#45;example&#45;two -->
<g id="node6" class="node">
<title>[root] aws_vpc.environment&#45;example&#45;two</title>
<polygon fill="none" stroke="#000000" points="455.5,-108 243.5,-108 243.5,-72 455.5,-72 455.5,-108"/>
<text text-anchor="middle" x="349.5" y="-86.3" font-family="Times,serif" font-size="14.00" fill="#000000">aws_vpc.environment&#45;example&#45;two</text>
</g>
<!-- [root] aws_security_group.subnetsecurity&#45;&gt;[root] aws_vpc.environment&#45;example&#45;two -->
<g id="edge5" class="edge">
<title>[root] aws_security_group.subnetsecurity&#45;&gt;[root] aws_vpc.environment&#45;example&#45;two</title>
<path fill="none" stroke="#000000" d="M134.6561,-215.7623C179.2027,-189.6863 261.0903,-141.752 309.887,-113.1881"/>
<polygon fill="#000000" stroke="#000000" points="311.7349,-116.162 318.5969,-108.0896 308.1986,-110.1209 311.7349,-116.162"/>
</g>
<!-- [root] aws_subnet.subnet1 -->
<g id="node4" class="node">
<title>[root] aws_subnet.subnet1</title>
<polygon fill="none" stroke="#000000" points="350,-252 225,-252 225,-216 350,-216 350,-252"/>
<text text-anchor="middle" x="287.5" y="-230.3" font-family="Times,serif" font-size="14.00" fill="#000000">aws_subnet.subnet1</text>
</g>
<!-- [root] aws_subnet.subnet1&#45;&gt;[root] aws_vpc.environment&#45;example&#45;two -->
<g id="edge6" class="edge">
<title>[root] aws_subnet.subnet1&#45;&gt;[root] aws_vpc.environment&#45;example&#45;two</title>
<path fill="none" stroke="#000000" d="M295.3523,-215.7623C306.0205,-190.9846 325.1859,-146.4714 337.6193,-117.5939"/>
<polygon fill="#000000" stroke="#000000" points="340.9715,-118.6586 341.7114,-108.0896 334.5421,-115.8903 340.9715,-118.6586"/>
</g>
<!-- [root] aws_subnet.subnet2&#45;&gt;[root] aws_vpc.environment&#45;example&#45;two -->
<g id="edge7" class="edge">
<title>[root] aws_subnet.subnet2&#45;&gt;[root] aws_vpc.environment&#45;example&#45;two</title>
<path fill="none" stroke="#000000" d="M409.3126,-143.8314C399.6486,-135.1337 387.9204,-124.5783 377.4184,-115.1265"/>
<polygon fill="#000000" stroke="#000000" points="379.4553,-112.251 369.6809,-108.1628 374.7725,-117.454 379.4553,-112.251"/>
</g>
<!-- [root] provider.aws -->
<g id="node8" class="node">
<title>[root] provider.aws</title>
<polygon fill="none" stroke="#000000" points="416.5,-36 336.5666,-18 416.5,0 496.4334,-18 416.5,-36"/>
<text text-anchor="middle" x="416.5" y="-14.3" font-family="Times,serif" font-size="14.00" fill="#000000">provider.aws</text>
</g>
<!-- [root] aws_vpc.environment&#45;example&#45;two&#45;&gt;[root] provider.aws -->
<g id="edge8" class="edge">
<title>[root] aws_vpc.environment&#45;example&#45;two&#45;&gt;[root] provider.aws</title>
<path fill="none" stroke="#000000" d="M366.4069,-71.8314C375.3037,-62.2706 386.2894,-50.4651 395.7038,-40.3481"/>
<polygon fill="#000000" stroke="#000000" points="398.2861,-42.711 402.5362,-33.0059 393.1616,-37.9423 398.2861,-42.711"/>
</g>
<!-- [root] data.aws_ami.ubuntu&#45;&gt;[root] provider.aws -->
<g id="edge9" class="edge">
<title>[root] data.aws_ami.ubuntu&#45;&gt;[root] provider.aws</title>
<path fill="none" stroke="#000000" d="M556.2359,-143.7623C526.6233,-117.111 471.6404,-67.6264 440.1959,-39.3263"/>
<polygon fill="#000000" stroke="#000000" points="442.5128,-36.7027 432.7384,-32.6146 437.83,-41.9058 442.5128,-36.7027"/>
</g>
<!-- [root] meta.count&#45;boundary (EachMode fixup) -->
<g id="node9" class="node">
<title>[root] meta.count&#45;boundary (EachMode fixup)</title>
<ellipse fill="none" stroke="#000000" cx="217.5" cy="-306" rx="176.5689" ry="18"/>
<text text-anchor="middle" x="217.5" y="-302.3" font-family="Times,serif" font-size="14.00" fill="#000000">[root] meta.count&#45;boundary (EachMode fixup)</text>
</g>
<!-- [root] meta.count&#45;boundary (EachMode fixup)&#45;&gt;[root] aws_instance.fourthserver -->
<g id="edge10" class="edge">
<title>[root] meta.count&#45;boundary (EachMode fixup)&#45;&gt;[root] aws_instance.fourthserver</title>
<path fill="none" stroke="#000000" d="M272.2985,-288.8457C304.5874,-278.7379 345.6942,-265.8696 379.9746,-255.1384"/>
<polygon fill="#000000" stroke="#000000" points="381.414,-258.3554 389.9116,-252.0277 379.3227,-251.675 381.414,-258.3554"/>
</g>
<!-- [root] meta.count&#45;boundary (EachMode fixup)&#45;&gt;[root] aws_instance.secondserver -->
<g id="edge11" class="edge">
<title>[root] meta.count&#45;boundary (EachMode fixup)&#45;&gt;[root] aws_instance.secondserver</title>
<path fill="none" stroke="#000000" d="M311.5409,-290.7169C372.4288,-280.6597 453.6812,-266.9375 534.7796,-252.1089"/>
<polygon fill="#000000" stroke="#000000" points="535.463,-255.542 544.6675,-250.2952 534.2001,-248.6569 535.463,-255.542"/>
</g>
<!-- [root] meta.count&#45;boundary (EachMode fixup)&#45;&gt;[root] aws_security_group.subnetsecurity -->
<g id="edge12" class="edge">
<title>[root] meta.count&#45;boundary (EachMode fixup)&#45;&gt;[root] aws_security_group.subnetsecurity</title>
<path fill="none" stroke="#000000" d="M189.3202,-288.2022C174.6332,-278.9262 156.4819,-267.4623 140.6606,-257.4698"/>
<polygon fill="#000000" stroke="#000000" points="142.4713,-254.4739 132.1474,-252.0931 138.7334,-260.3923 142.4713,-254.4739"/>
</g>
<!-- [root] meta.count&#45;boundary (EachMode fixup)&#45;&gt;[root] aws_subnet.subnet1 -->
<g id="edge13" class="edge">
<title>[root] meta.count&#45;boundary (EachMode fixup)&#45;&gt;[root] aws_subnet.subnet1</title>
<path fill="none" stroke="#000000" d="M235.164,-287.8314C243.4732,-279.2848 253.5264,-268.9443 262.5918,-259.6198"/>
<polygon fill="#000000" stroke="#000000" points="265.1369,-262.023 269.5982,-252.4133 260.1179,-257.1435 265.1369,-262.023"/>
</g>
<!-- [root] provider.aws (close) -->
<g id="node10" class="node">
<title>[root] provider.aws (close)</title>
<ellipse fill="none" stroke="#000000" cx="517.5" cy="-306" rx="105.0817" ry="18"/>
<text text-anchor="middle" x="517.5" y="-302.3" font-family="Times,serif" font-size="14.00" fill="#000000">[root] provider.aws (close)</text>
</g>
<!-- [root] provider.aws (close)&#45;&gt;[root] aws_instance.fourthserver -->
<g id="edge14" class="edge">
<title>[root] provider.aws (close)&#45;&gt;[root] aws_instance.fourthserver</title>
<path fill="none" stroke="#000000" d="M500.1966,-288.2022C491.7628,-279.5275 481.4686,-268.9391 472.224,-259.4304"/>
<polygon fill="#000000" stroke="#000000" points="474.5708,-256.8233 465.0905,-252.0931 469.5519,-261.7029 474.5708,-256.8233"/>
</g>
<!-- [root] provider.aws (close)&#45;&gt;[root] aws_instance.secondserver -->
<g id="edge15" class="edge">
<title>[root] provider.aws (close)&#45;&gt;[root] aws_instance.secondserver</title>
<path fill="none" stroke="#000000" d="M543.8859,-288.5708C557.8957,-279.3166 575.3188,-267.8077 590.548,-257.7481"/>
<polygon fill="#000000" stroke="#000000" points="592.8039,-260.4527 599.2188,-252.0206 588.9457,-254.6119 592.8039,-260.4527"/>
</g>
<!-- [root] provider.aws (close)&#45;&gt;[root] aws_security_group.subnetsecurity -->
<g id="edge16" class="edge">
<title>[root] provider.aws (close)&#45;&gt;[root] aws_security_group.subnetsecurity</title>
<path fill="none" stroke="#000000" d="M443.4851,-293.1278C380.6217,-282.1951 289.3819,-266.3273 217.2447,-253.7817"/>
<polygon fill="#000000" stroke="#000000" points="217.6494,-250.2996 207.1976,-252.0344 216.45,-257.1961 217.6494,-250.2996"/>
</g>
<!-- [root] provider.aws (close)&#45;&gt;[root] aws_subnet.subnet1 -->
<g id="edge17" class="edge">
<title>[root] provider.aws (close)&#45;&gt;[root] aws_subnet.subnet1</title>
<path fill="none" stroke="#000000" d="M467.0255,-290.1993C434.1486,-279.9074 390.8688,-266.3589 355.0417,-255.1435"/>
<polygon fill="#000000" stroke="#000000" points="355.7381,-251.6941 345.1492,-252.0467 353.6468,-258.3744 355.7381,-251.6941"/>
</g>
<!-- [root] root -->
<g id="node11" class="node">
<title>[root] root</title>
<ellipse fill="none" stroke="#000000" cx="367.5" cy="-378" rx="47.3916" ry="18"/>
<text text-anchor="middle" x="367.5" y="-374.3" font-family="Times,serif" font-size="14.00" fill="#000000">[root] root</text>
</g>
<!-- [root] root&#45;&gt;[root] meta.count&#45;boundary (EachMode fixup) -->
<g id="edge18" class="edge">
<title>[root] root&#45;&gt;[root] meta.count&#45;boundary (EachMode fixup)</title>
<path fill="none" stroke="#000000" d="M337.8648,-363.7751C316.5909,-353.5636 287.5166,-339.608 263.2726,-327.9708"/>
<polygon fill="#000000" stroke="#000000" points="264.7734,-324.809 254.2436,-323.6369 261.7443,-331.1196 264.7734,-324.809"/>
</g>
<!-- [root] root&#45;&gt;[root] provider.aws (close) -->
<g id="edge19" class="edge">
<title>[root] root&#45;&gt;[root] provider.aws (close)</title>
<path fill="none" stroke="#000000" d="M397.1352,-363.7751C418.7877,-353.3819 448.5206,-339.1101 473.0169,-327.3519"/>
<polygon fill="#000000" stroke="#000000" points="474.6206,-330.4645 482.1213,-322.9818 471.5915,-324.1538 474.6206,-330.4645"/>
</g>
</g>
</svg>
